g Eye_L
v 0.06716577 1.414292 0.02470733
v 0.07941628 1.412846 0.01144371
v 0.07660349 1.39719 0.01139638
v 0.06530782 1.399058 0.02343033
v 0.06346537 1.388245 0.02178929
v 0.07158825 1.38461 0.01257779
v 0.05468249 1.414337 0.03273296
v 0.05273247 1.400427 0.03036978
v 0.05126555 1.389594 0.02870912
v 0.07032926 1.371728 0.01148743
v 0.0614512 1.373242 0.02213821
v 0.05016691 1.374043 0.02804078
v 0.08405703 1.396713 -0.001042673
v 0.07935835 1.382546 0.002843169
v 0.08707984 1.412995 -0.003893747
v 0.03849054 1.414276 0.04070893
v 0.03927779 1.443206 0.04049065
v 0.05540043 1.441658 0.03098259
v 0.02158272 1.444188 0.04713419
v 0.02094753 1.413708 0.04828145
v 0.03709914 1.398472 0.03772175
v 0.01965752 1.397412 0.04728833
v 0.02855833 1.388467 0.03673382
v 0.008205633 1.397029 0.05171908
v 0.008725985 1.413606 0.05298841
v 0.007669763 1.384538 0.04717661
v 0.01654161 1.385065 0.043424
v 0.02564519 1.378001 0.03438015
v 0.03792363 1.38838 0.03197607
v 0.03795467 1.37339 0.03002832
v 0.04042194 1.355175 0.02924946
v 0.04866793 1.354615 0.02640374
v 0.04734006 1.346382 0.02840377
v 0.05756667 1.346409 0.02209738
v 0.05818529 1.356952 0.02239723
v 0.03856916 1.347342 0.0318631
v 0.03165562 1.358579 0.0309786
v 0.02799039 1.349354 0.03411676
v 0.01815232 1.352214 0.03736769
v 0.02099202 1.360048 0.03386959
v 0.01173223 1.363436 0.03935383
v 0.01046808 1.355462 0.04158086
v 0.06626327 1.346746 0.01264685
v 0.06690742 1.360484 0.012644
v 0.02751556 1.364216 0.03179494
v 0.02498828 1.371818 0.03359393
v 0.01385192 1.374289 0.03878043
v 0.07435863 1.359243 0.001470391
v 0.0711818 1.347134 0.0006071114
v 0.07643176 1.37149 0.003272485
v 0.06892545 1.439491 0.02215456
v 0.08006284 1.435891 0.01094094
v 0.07941628 1.412846 0.01144371
v 0.08006284 1.435891 0.01094094
v 0.08795916 1.433642 -0.005950328
v 0.009061161 1.444174 0.05116563
vt 0.6808636 0.7301389
vt 0.8141708 0.7220596
vt 0.7899331 0.5513184
vt 0.6770932 0.5801345
vt 0.672515 0.4557142
vt 0.76004 0.4155874
vt 0.5707166 0.7266377
vt 0.5472869 0.5887522
vt 0.5410928 0.475643
vt 0.7465745 0.2841652
vt 0.6509704 0.3003237
vt 0.5292432 0.3089414
vt 0.894694 0.5270807
vt 0.8440639 0.3935042
vt 0.9256642 0.6420752
vt 0.3894725 0.7306774
vt 0.4099399 0.9805951
vt 0.5890296 0.9533949
vt 0.2383908 0.9913672
vt 0.2176542 0.725022
vt 0.3741219 0.5655919
vt 0.2004184 0.537853
vt 0.2962919 0.4519439
vt 0.07680616 0.5335441
vt 0.06872702 0.7126338
vt 0.07115078 0.3986209
vt 0.1667549 0.412625
vt 0.2647831 0.3555318
vt 0.3972824 0.4627162
vt 0.3975518 0.3019394
vt 0.4242131 0.1066914
vt 0.5130847 0.1007665
vt 0.4681104 0.03505552
vt 0.5677543 0.02778423
vt 0.615691 0.1258121
vt 0.3746605 0.04528913
vt 0.3296862 0.1481647
vt 0.2798642 0.0700655
vt 0.1907233 0.08002993
vt 0.2146918 0.1592064
vt 0.1188183 0.1847906
vt 0.110739 0.1066914
vt 0.6735922 0.02536041
vt 0.6983685 0.1637846
vt 0.2849811 0.2087589
vt 0.257781 0.2900898
vt 0.1376697 0.3046325
vt 0.7937033 0.141432
vt 0.7635576 -0.003673375
vt 0.8122857 0.2766245
vt 0.7196438 0.9356205
vt 0.8607612 0.8898382
vt 0.8141708 0.7220596
vt 0.8607612 0.8898382
vt 0.9612128 0.7856162
vt 0.07222798 0.9978306
vn 0.6794601 -0.08895003 0.7283007
vn 0.8241091 -0.0810674 0.5605999
vn 0.7848349 -0.1950158 0.5882203
vn 0.6420592 -0.2159154 0.7356226
vn 0.619139 -0.2191854 0.754072
vn 0.7657856 -0.2219939 0.6035654
vn 0.5494922 -0.1010354 0.8293673
vn 0.5129637 -0.2542027 0.8199081
vn 0.4798627 -0.2466048 0.8419726
vn 0.7697948 -0.1741333 0.6140794
vn 0.6206204 -0.1401372 0.7714868
vn 0.4550964 -0.1220738 0.8820347
vn 0.9095731 -0.1892443 0.3699504
vn 0.8794047 -0.2361508 0.4133766
vn 0.9344151 -0.08277169 0.346435
vn 0.4584687 -0.1101558 0.8818572
vn 0.4440715 0.08706538 0.8917511
vn 0.5686842 0.07227869 0.8193742
vn 0.3262696 0.1192131 0.9377294
vn 0.3793784 -0.06999528 0.9225902
vn 0.4650529 -0.306504 0.8305306
vn 0.4512594 -0.3091548 0.837131
vn 0.4619728 -0.3492868 0.8152176
vn 0.3327829 -0.2612321 0.9060978
vn 0.2415759 -0.05825282 0.9686319
vn 0.4191452 -0.3318011 0.8451185
vn 0.4772483 -0.3381587 0.8110997
vn 0.4533386 -0.2904186 0.8426987
vn 0.4374509 -0.3040631 0.8462756
vn 0.3860925 -0.1532579 0.9096398
vn 0.352574 0.05459147 0.9341902
vn 0.4687768 0.01928699 0.8831061
vn 0.4922067 0.1135859 0.8630358
vn 0.6621663 0.02716901 0.7488642
vn 0.6383228 -0.0395066 0.7687544
vn 0.3928876 0.1755928 0.9026663
vn 0.3509611 0.0586457 0.9345517
vn 0.400661 0.2091177 0.8920429
vn 0.5184442 0.1937333 0.8328763
vn 0.4268137 0.01501932 0.9042149
vn 0.8462279 -0.02393995 0.5322831
vn 0.9003682 0.2829553 0.3305652
vn 0.8231909 -0.08377858 0.5615495
vn 0.8164222 -0.1227951 0.5642484
vn 0.3554797 -0.04333862 0.9336787
vn 0.4372897 -0.130989 0.88973
vn 0.6967065 -0.2620946 0.6677623
vn 0.9088876 -0.168643 0.3814223
vn 0.9298292 -0.18108 0.3203557
vn 0.875108 -0.193064 0.443748
vn 0.703688 0.06665263 0.7073759
vn 0.8372674 0.04193678 0.5451831
vn 0.8241091 -0.0810674 0.5605999
vn 0.8372674 0.04193678 0.5451831
vn 0.9245036 0.01679053 0.3808034
vn 0.192956 0.1513333 0.9694669
f 3/3/3 2/2/2 1/1/1
f 4/4/4 3/3/3 1/1/1
f 4/4/4 5/5/5 3/3/3
f 5/5/5 6/6/6 3/3/3
f 4/4/4 1/1/1 7/7/7
f 8/8/8 4/4/4 7/7/7
f 9/9/9 5/5/5 4/4/4
f 8/8/8 9/9/9 4/4/4
f 6/6/6 5/5/5 10/10/10
f 5/5/5 11/11/11 10/10/10
f 5/5/5 9/9/9 11/11/11
f 9/9/9 12/12/12 11/11/11
f 13/13/13 3/3/3 6/6/6
f 2/2/2 3/3/3 13/13/13
f 14/14/14 13/13/13 6/6/6
f 15/15/15 2/2/2 13/13/13
f 8/8/8 7/7/7 16/16/16
f 16/16/16 7/7/7 17/17/17
f 7/7/7 18/18/18 17/17/17
f 16/16/16 17/17/17 19/19/19
f 20/20/20 16/16/16 19/19/19
f 21/21/21 16/16/16 20/20/20
f 21/21/21 8/8/8 16/16/16
f 22/22/22 21/21/21 20/20/20
f 23/23/23 21/21/21 22/22/22
f 24/24/24 22/22/22 20/20/20
f 25/25/25 24/24/24 20/20/20
f 20/20/20 19/19/19 25/25/25
f 24/24/24 26/26/26 22/22/22
f 26/26/26 27/27/27 22/22/22
f 27/27/27 23/23/23 22/22/22
f 27/27/27 28/28/28 23/23/23
f 23/23/23 28/28/28 29/29/29
f 23/23/23 29/29/29 21/21/21
f 30/30/30 29/29/29 28/28/28
f 21/21/21 29/29/29 8/8/8
f 29/29/29 9/9/9 8/8/8
f 29/29/29 30/30/30 9/9/9
f 30/30/30 12/12/12 9/9/9
f 12/12/12 30/30/30 31/31/31
f 32/32/32 12/12/12 31/31/31
f 33/33/33 32/32/32 31/31/31
f 33/33/33 34/34/34 32/32/32
f 34/34/34 35/35/35 32/32/32
f 12/12/12 32/32/32 35/35/35
f 36/36/36 33/33/33 31/31/31
f 31/31/31 37/37/37 36/36/36
f 37/37/37 38/38/38 36/36/36
f 39/39/39 38/38/38 37/37/37
f 40/40/40 39/39/39 37/37/37
f 39/39/39 40/40/40 41/41/41
f 42/42/42 39/39/39 41/41/41
f 11/11/11 12/12/12 35/35/35
f 35/35/35 34/34/34 43/43/43
f 44/44/44 35/35/35 43/43/43
f 35/35/35 44/44/44 11/11/11
f 45/45/45 40/40/40 37/37/37
f 37/37/37 31/31/31 45/45/45
f 46/46/46 41/41/41 40/40/40
f 46/46/46 40/40/40 45/45/45
f 47/47/47 41/41/41 46/46/46
f 28/28/28 47/47/47 46/46/46
f 46/46/46 45/45/45 30/30/30
f 28/28/28 46/46/46 30/30/30
f 44/44/44 43/43/43 48/48/48
f 43/43/43 49/49/49 48/48/48
f 50/50/50 44/44/44 48/48/48
f 31/31/31 30/30/30 45/45/45
f 44/44/44 10/10/10 11/11/11
f 10/10/10 44/44/44 50/50/50
f 6/6/6 10/10/10 50/50/50
f 14/14/14 6/6/6 50/50/50
f 47/47/47 28/28/28 27/27/27
f 18/18/18 7/7/7 1/1/1
f 51/51/51 18/18/18 1/1/1
f 1/1/1 2/2/2 51/51/51
f 2/2/2 52/52/52 51/51/51
f 54/54/54 53/53/53 15/15/15
f 55/55/55 54/54/54 15/15/15
f 19/19/19 56/56/56 25/25/25
