g Eye_R
v -0.06716577 1.414292 0.02470733
v -0.06530782 1.399058 0.02343033
v -0.07660349 1.397625 0.01137854
v -0.07941628 1.413273 0.01144371
v -0.06346537 1.388245 0.02178929
v -0.07158825 1.38461 0.01257779
v -0.05468249 1.413906 0.03273296
v -0.05273247 1.400012 0.03042149
v -0.05126555 1.389594 0.02870912
v -0.07032926 1.371728 0.01148743
v -0.0614512 1.373242 0.02213821
v -0.05016691 1.374043 0.02804078
v -0.08405703 1.396713 -0.001042673
v -0.07935835 1.382546 0.002843169
v -0.08707984 1.412995 -0.003893747
v -0.03849054 1.414276 0.04070893
v -0.03927779 1.443206 0.04049065
v -0.05540043 1.441658 0.03098259
v -0.02158272 1.444188 0.04713419
v -0.02094753 1.413708 0.04828145
v -0.03709914 1.398472 0.03772175
v -0.01965752 1.397412 0.04728833
v -0.02855833 1.388467 0.03673382
v -0.008205633 1.397029 0.05171908
v -0.008725985 1.413606 0.05298841
v -0.007669763 1.384538 0.04717661
v -0.01654161 1.385065 0.043424
v -0.02564519 1.378001 0.03438015
v -0.03792363 1.38838 0.03197607
v -0.03795467 1.37339 0.03002832
v -0.04042194 1.355175 0.02924946
v -0.04866793 1.354615 0.02640374
v -0.04734006 1.346382 0.02840377
v -0.05756667 1.346409 0.02209738
v -0.05818529 1.356952 0.02239723
v -0.03856916 1.347342 0.0318631
v -0.03165562 1.358579 0.0309786
v -0.02799039 1.349354 0.03411676
v -0.01815232 1.352214 0.03736769
v -0.02099202 1.360048 0.03386959
v -0.01173223 1.363436 0.03935383
v -0.01046808 1.355462 0.04158086
v -0.06626327 1.346746 0.01264685
v -0.06690742 1.360484 0.012644
v -0.02751556 1.364216 0.03179494
v -0.02498828 1.371818 0.03359393
v -0.01385192 1.374289 0.03878043
v -0.07435863 1.359243 0.001470391
v -0.0711818 1.347134 0.0006071114
v -0.07643176 1.37149 0.003272485
v -0.06892545 1.439491 0.02215456
v -0.08006284 1.435891 0.01094094
v -0.08006284 1.435891 0.01094094
v -0.08795916 1.433642 -0.005950328
v -0.009061161 1.444174 0.05116563
vt 0.3247754 0.7303839
vt 0.3285436 0.5804675
vt 0.2157698 0.551668
vt 0.1915464 0.7223094
vt 0.3331192 0.45612
vt 0.2456455 0.4160169
vt 0.4348577 0.7268848
vt 0.4582738 0.5890802
vt 0.4644643 0.4760372
vt 0.259103 0.2846718
vt 0.3549203 0.3008207
vt 0.4763069 0.3094335
vt 0.1113396 0.5274447
vt 0.1619399 0.3939466
vt 0.08011837 0.6423718
vt 0.6159957 0.7309221
vt 0.5958093 0.9806933
vt 0.4168248 0.9535091
vt 0.7669885 0.991459
vt 0.7879822 0.7252699
vt 0.6313372 0.5659333
vt 0.8052078 0.5382107
vt 0.7091214 0.452352
vt 0.9284784 0.5339044
vt 0.9368221 0.7128893
vt 0.9343997 0.3990603
vt 0.8385824 0.4130562
vt 0.7406118 0.3559964
vt 0.6081904 0.463118
vt 0.6079212 0.3024355
vt 0.5812753 0.1073019
vt 0.4924558 0.1013806
vt 0.5374038 0.03570807
vt 0.4378184 0.0284411
vt 0.3899097 0.1264115
vt 0.6307988 0.04593566
vt 0.6757467 0.1487509
vt 0.7255396 0.07069758
vt 0.8146282 0.08065617
vt 0.7906736 0.1597861
vt 0.8864911 0.1853553
vt 0.8945655 0.1073019
vt 0.3320425 0.02601868
vt 0.3072808 0.1643617
vt 0.7204256 0.2093096
vt 0.7476099 0.2905929
vt 0.8676508 0.305127
vt 0.2120017 0.1420223
vt 0.2477528 0.006376386
vt 0.1934305 0.2771354
vt 0.2862871 0.9357451
vt 0.1449834 0.8899896
vt 0.1449834 0.8899896
vt 0.0445906 0.7858286
vt 0.9330541 0.9979186
vn -0.6803616 -0.08904193 0.7274474
vn -0.6431137 -0.2162814 0.7345932
vn -0.7855908 -0.1939759 0.5875546
vn -0.8244439 -0.08035361 0.5602102
vn -0.6201966 -0.2195623 0.7530926
vn -0.7663279 -0.2210165 0.6032357
vn -0.5496011 -0.1020923 0.8291658
vn -0.5133299 -0.2557591 0.8191946
vn -0.4800074 -0.248101 0.8414505
vn -0.7699695 -0.1734858 0.6140437
vn -0.6211185 -0.1401944 0.7710754
vn -0.4550018 -0.1230358 0.8819498
vn -0.9096356 -0.1881998 0.3703295
vn -0.8794852 -0.2351497 0.4137758
vn -0.9342933 -0.08239662 0.3468528
vn -0.4579609 -0.110678 0.8820556
vn -0.4437216 0.08701307 0.8919305
vn -0.5686581 0.07220471 0.8193988
vn -0.326285 0.1192021 0.9377254
vn -0.3790354 -0.07001158 0.92273
vn -0.4644438 -0.3076368 0.8304527
vn -0.4508179 -0.309524 0.8372325
vn -0.4613055 -0.3500044 0.8152878
vn -0.3326416 -0.2613254 0.9061229
vn -0.2414533 -0.05828122 0.9686607
vn -0.4191137 -0.3318272 0.8451239
vn -0.4772495 -0.3381595 0.8110987
vn -0.453153 -0.290725 0.8426929
vn -0.4368683 -0.3051694 0.8461783
vn -0.3859178 -0.1535641 0.9096623
vn -0.3525745 0.05459153 0.93419
vn -0.4687771 0.01928702 0.8831059
vn -0.4922072 0.113586 0.8630355
vn -0.6621668 0.02716915 0.7488638
vn -0.6383231 -0.03950645 0.7687541
vn -0.3928881 0.175593 0.9026661
vn -0.3509625 0.0586457 0.9345512
vn -0.4006615 0.2091179 0.8920426
vn -0.5184455 0.1937336 0.8328755
vn -0.4268151 0.01501927 0.9042142
vn -0.8462284 -0.02394006 0.5322822
vn -0.9003685 0.2829551 0.3305648
vn -0.8231913 -0.08377846 0.5615489
vn -0.816422 -0.1227949 0.5642486
vn -0.355481 -0.04333875 0.9336782
vn -0.4372913 -0.1309893 0.8897293
vn -0.6966744 -0.2621652 0.6677681
vn -0.9088876 -0.1686429 0.3814222
vn -0.9298293 -0.1810799 0.3203554
vn -0.8750753 -0.1928056 0.4439248
vn -0.7040826 0.06659152 0.7069889
vn -0.8372468 0.04194204 0.5452143
vn -0.8372468 0.04194204 0.5452143
vn -0.9244174 0.01681988 0.3810111
vn -0.1929568 0.1513335 0.9694668
f 3/3/3 2/2/2 1/1/1
f 4/4/4 3/3/3 1/1/1
f 5/5/5 2/2/2 3/3/3
f 6/6/6 5/5/5 3/3/3
f 1/1/1 2/2/2 7/7/7
f 2/2/2 8/8/8 7/7/7
f 9/9/9 8/8/8 2/2/2
f 5/5/5 9/9/9 2/2/2
f 5/5/5 6/6/6 10/10/10
f 11/11/11 5/5/5 10/10/10
f 9/9/9 5/5/5 11/11/11
f 12/12/12 9/9/9 11/11/11
f 3/3/3 13/13/13 6/6/6
f 3/3/3 4/4/4 13/13/13
f 13/13/13 14/14/14 6/6/6
f 4/4/4 15/15/15 13/13/13
f 7/7/7 8/8/8 16/16/16
f 7/7/7 16/16/16 17/17/17
f 18/18/18 7/7/7 17/17/17
f 17/17/17 16/16/16 19/19/19
f 16/16/16 20/20/20 19/19/19
f 16/16/16 21/21/21 20/20/20
f 8/8/8 21/21/21 16/16/16
f 21/21/21 22/22/22 20/20/20
f 21/21/21 23/23/23 22/22/22
f 22/22/22 24/24/24 20/20/20
f 24/24/24 25/25/25 20/20/20
f 19/19/19 20/20/20 25/25/25
f 26/26/26 24/24/24 22/22/22
f 27/27/27 26/26/26 22/22/22
f 23/23/23 27/27/27 22/22/22
f 28/28/28 27/27/27 23/23/23
f 28/28/28 23/23/23 29/29/29
f 29/29/29 23/23/23 21/21/21
f 29/29/29 30/30/30 28/28/28
f 29/29/29 21/21/21 8/8/8
f 9/9/9 29/29/29 8/8/8
f 30/30/30 29/29/29 9/9/9
f 12/12/12 30/30/30 9/9/9
f 30/30/30 12/12/12 31/31/31
f 12/12/12 32/32/32 31/31/31
f 32/32/32 33/33/33 31/31/31
f 34/34/34 33/33/33 32/32/32
f 35/35/35 34/34/34 32/32/32
f 32/32/32 12/12/12 35/35/35
f 33/33/33 36/36/36 31/31/31
f 37/37/37 31/31/31 36/36/36
f 38/38/38 37/37/37 36/36/36
f 38/38/38 39/39/39 37/37/37
f 39/39/39 40/40/40 37/37/37
f 40/40/40 39/39/39 41/41/41
f 39/39/39 42/42/42 41/41/41
f 12/12/12 11/11/11 35/35/35
f 34/34/34 35/35/35 43/43/43
f 35/35/35 44/44/44 43/43/43
f 44/44/44 35/35/35 11/11/11
f 40/40/40 45/45/45 37/37/37
f 31/31/31 37/37/37 45/45/45
f 41/41/41 46/46/46 40/40/40
f 40/40/40 46/46/46 45/45/45
f 41/41/41 47/47/47 46/46/46
f 47/47/47 28/28/28 46/46/46
f 45/45/45 46/46/46 30/30/30
f 46/46/46 28/28/28 30/30/30
f 43/43/43 44/44/44 48/48/48
f 49/49/49 43/43/43 48/48/48
f 44/44/44 50/50/50 48/48/48
f 30/30/30 31/31/31 45/45/45
f 10/10/10 44/44/44 11/11/11
f 44/44/44 10/10/10 50/50/50
f 10/10/10 6/6/6 50/50/50
f 6/6/6 14/14/14 50/50/50
f 28/28/28 47/47/47 27/27/27
f 18/18/18 51/51/51 1/1/1
f 7/7/7 18/18/18 1/1/1
f 4/4/4 1/1/1 51/51/51
f 52/52/52 4/4/4 51/51/51
f 4/4/4 53/53/53 15/15/15
f 53/53/53 54/54/54 15/15/15
f 55/55/55 19/19/19 25/25/25
